<?xml version="1.0" standalone="no"?>
<!DOCTYPE svg PUBLIC "-//W3C//DTD SVG 20010904//EN"
 "http://www.w3.org/TR/2001/REC-SVG-20010904/DTD/svg10.dtd">
<svg version="1.0" xmlns="http://www.w3.org/2000/svg"
 width="1024.000000pt" height="1024.000000pt" viewBox="0 0 1024.000000 1024.000000"
 preserveAspectRatio="xMidYMid meet">

<g transform="translate(0.000000,1024.000000) scale(0.100000,-0.100000)"
fill="#000000" stroke="none">
<path d="M2105 7319 c-444 -42 -762 -205 -942 -481 -241 -368 -169 -820 154
-980 81 -40 91 -43 188 -46 115 -5 178 9 279 60 77 39 174 136 210 211 48 97
48 202 0 233 -37 25 -66 6 -104 -65 -65 -122 -190 -201 -331 -209 -109 -6
-168 15 -240 87 -73 73 -100 141 -106 271 -15 284 167 513 479 604 247 71 516
75 888 10 213 -37 663 -124 669 -129 2 -3 -7 -5 -21 -5 -114 0 -276 -135 -420
-350 -125 -186 -231 -420 -494 -1085 -199 -504 -303 -685 -463 -807 -255 -193
-524 -176 -587 38 -18 62 -44 88 -88 88 -102 0 -161 -136 -106 -244 58 -113
246 -189 468 -190 255 0 480 93 677 281 220 211 325 393 640 1119 92 212 200
452 241 534 133 268 254 425 400 519 l70 46 105 -16 c74 -12 178 -17 359 -17
229 -1 264 2 348 21 169 40 333 139 459 277 95 104 125 183 85 219 -38 35 -69
22 -150 -61 -88 -89 -149 -124 -258 -152 -154 -40 -240 -32 -1014 95 -521 85
-678 107 -895 125 -140 11 -371 11 -500 -1z"/>
<path d="M6250 6539 c-46 -14 -101 -55 -132 -98 -93 -132 -38 -281 105 -281
124 0 227 105 230 235 1 58 -15 91 -64 127 -31 22 -94 30 -139 17z"/>
<path d="M3741 5985 c-80 -18 -195 -72 -275 -129 -87 -62 -262 -247 -329 -348
-122 -183 -186 -363 -194 -549 -4 -90 -2 -127 11 -173 32 -110 100 -186 214
-239 57 -27 79 -31 171 -35 167 -6 277 27 436 133 205 136 405 400 480 635 22
68 81 143 222 282 150 148 202 180 233 143 31 -37 -56 -269 -369 -984 -72
-164 -60 -178 138 -169 53 3 106 10 117 16 13 7 51 77 103 189 211 453 402
778 525 891 74 69 120 66 131 -7 15 -95 62 -137 142 -128 61 7 113 45 148 108
27 48 30 63 30 140 0 76 -3 90 -28 127 -64 98 -165 123 -281 69 -112 -52 -266
-235 -386 -460 -29 -54 -54 -96 -56 -94 -2 2 12 40 31 85 132 314 124 468 -25
496 -113 20 -317 -101 -557 -331 l-82 -78 -6 47 c-19 157 -123 300 -254 348
-73 28 -204 35 -290 15z m217 -155 c48 -29 66 -78 64 -180 -1 -104 -34 -237
-98 -394 -151 -371 -345 -596 -513 -598 -139 -1 -190 120 -146 349 46 240 217
579 365 724 111 108 246 149 328 99z"/>
<path d="M8765 5986 c-170 -40 -280 -110 -457 -295 -121 -126 -198 -236 -262
-373 -47 -99 -70 -173 -81 -250 -5 -42 -14 -54 -88 -125 -198 -189 -344 -264
-363 -187 -13 50 8 108 166 463 87 198 168 388 180 422 52 161 -3 292 -142
334 -156 46 -311 -24 -518 -234 -58 -59 -130 -144 -159 -189 -30 -45 -55 -82
-57 -82 -1 0 12 33 31 73 54 118 95 245 95 295 0 136 -128 183 -288 107 -130
-62 -324 -213 -349 -272 -11 -28 -11 -39 -1 -61 7 -15 21 -28 30 -30 10 -2 53
28 104 72 85 75 119 94 149 82 24 -9 19 -32 -40 -184 -69 -181 -137 -276 -349
-487 -158 -157 -284 -255 -401 -311 -81 -40 -108 -42 -129 -12 -37 53 -29 72
368 972 36 82 66 157 66 167 0 11 -9 28 -20 39 -18 18 -33 20 -150 20 -123 0
-132 -1 -154 -23 -13 -13 -26 -41 -30 -63 -11 -58 -78 -215 -231 -544 -212
-455 -207 -442 -213 -541 -6 -108 6 -146 62 -197 100 -92 242 -81 440 34 142
82 273 185 442 347 l82 78 -90 -203 c-49 -112 -92 -210 -94 -218 -3 -8 2 -24
10 -35 13 -18 26 -20 144 -20 98 0 133 3 146 14 21 18 76 125 157 309 139 313
240 485 388 664 116 138 202 205 288 223 25 5 36 2 54 -16 46 -46 17 -139
-176 -559 -159 -345 -175 -388 -175 -458 1 -189 185 -277 384 -184 102 48 271
168 372 264 l40 38 17 -53 c24 -77 88 -170 144 -211 137 -102 372 -102 571 -2
258 130 511 448 586 736 9 36 20 117 23 180 9 178 -23 275 -124 381 -72 76
-145 108 -255 114 -51 3 -106 -1 -143 -9z m184 -161 c46 -39 65 -110 58 -214
-21 -285 -179 -634 -377 -831 -145 -146 -263 -165 -344 -56 -31 41 -34 174 -7
289 77 326 320 732 484 811 72 35 145 35 186 1z"/>
<path d="M2040 4131 c-14 -27 -13 -37 6 -55 14 -15 352 -16 3569 -16 l3554 0
12 21 c8 16 8 28 0 45 l-11 24 -3559 0 c-3510 0 -3560 0 -3571 -19z"/>
<path d="M4553 3646 c-52 -23 -67 -74 -39 -128 14 -26 13 -29 -20 -62 -28 -28
-34 -41 -34 -78 0 -34 6 -50 24 -67 45 -43 128 -50 183 -15 18 11 23 11 33 -1
8 -10 31 -15 63 -15 l51 0 -38 39 -39 40 17 41 c25 62 22 80 -13 80 -25 0 -31
-5 -36 -30 -9 -42 -20 -44 -49 -9 l-26 31 35 39 c41 45 44 77 13 113 -28 31
-82 41 -125 22z m80 -60 c3 -8 -3 -26 -15 -41 -16 -20 -23 -23 -34 -14 -14 12
-19 51 -7 62 12 13 51 7 56 -7z m3 -234 c-12 -19 -57 -23 -82 -7 -28 18 -31
51 -7 77 16 18 18 18 56 -20 22 -22 37 -44 33 -50z"/>
<path d="M5983 3649 c-69 -21 -98 -112 -49 -158 13 -12 54 -35 92 -50 75 -30
95 -51 78 -78 -18 -30 -89 -29 -134 1 -37 24 -38 25 -55 6 -22 -24 -14 -45 26
-69 72 -44 167 -35 214 21 23 27 26 39 22 71 -7 52 -27 70 -111 105 -77 31
-97 51 -77 76 17 21 63 20 103 0 31 -16 33 -16 50 6 25 30 23 35 -15 53 -45
22 -105 28 -144 16z"/>
<path d="M1370 3465 l0 -185 35 0 35 0 0 65 0 65 50 0 c122 0 187 77 146 173
-21 52 -62 67 -176 67 l-90 0 0 -185z m190 105 c46 -46 9 -100 -70 -100 l-50
0 0 60 0 60 50 0 c37 0 55 -5 70 -20z"/>
<path d="M1780 3465 l0 -185 35 0 35 0 0 185 0 185 -35 0 -35 0 0 -185z"/>
<path d="M2000 3620 l0 -29 85 -3 84 -3 -94 -130 c-54 -73 -95 -140 -95 -152
0 -23 1 -23 145 -23 l145 0 0 30 0 30 -95 0 c-52 0 -95 2 -95 5 0 3 41 61 90
129 59 81 90 133 90 150 l0 26 -130 0 -130 0 0 -30z"/>
<path d="M2392 3620 l-1 -29 89 -3 89 -3 -94 -130 c-52 -71 -95 -140 -95 -152
0 -23 1 -23 145 -23 l145 0 0 30 0 30 -95 0 c-52 0 -95 2 -95 4 0 3 41 61 90
129 59 81 90 134 90 151 l0 26 -133 0 -134 0 -1 -30z"/>
<path d="M2800 3465 l0 -185 130 0 130 0 0 30 0 30 -95 0 -95 0 0 50 0 50 86
0 85 0 -3 28 c-3 27 -4 27 -85 30 l-83 3 0 44 0 45 95 0 95 0 0 30 0 30 -130
0 -130 0 0 -185z"/>
<path d="M3200 3465 l0 -185 35 0 35 0 0 70 0 70 30 0 c26 0 34 -7 67 -70 37
-67 39 -70 76 -70 20 0 37 2 37 4 0 2 -17 34 -38 72 l-37 69 28 25 c22 19 30
37 33 70 10 93 -41 130 -178 130 l-88 0 0 -185z m180 105 c45 -45 9 -100 -65
-100 l-45 0 0 60 0 60 45 0 c32 0 51 -6 65 -20z"/>
<path d="M3615 3465 l0 -185 38 0 37 0 0 185 0 185 -37 0 -38 0 0 -185z"/>
<path d="M3940 3648 c0 -2 -29 -84 -65 -182 -36 -98 -65 -180 -65 -182 0 -2
15 -4 34 -4 31 0 36 4 49 43 l14 42 73 0 73 0 15 -42 c12 -39 17 -43 48 -43
19 0 34 3 34 8 0 4 -29 86 -64 182 l-64 175 -41 3 c-23 2 -41 2 -41 0z m90
-220 c0 -5 -22 -8 -50 -8 -27 0 -50 4 -50 8 0 8 29 99 46 142 5 12 53 -117 54
-142z"/>
<path d="M5110 3465 l0 -185 35 0 35 0 0 70 0 70 30 0 c32 0 46 -16 86 -100
17 -36 23 -40 57 -40 20 0 37 3 37 7 0 3 -16 35 -36 70 l-35 64 30 35 c24 27
31 44 31 77 0 86 -48 117 -180 117 l-90 0 0 -185z m182 108 c25 -23 23 -68 -4
-87 -12 -9 -42 -16 -65 -16 l-43 0 0 60 0 60 47 0 c29 0 53 -6 65 -17z"/>
<path d="M5520 3465 l0 -185 130 0 130 0 0 30 0 30 -95 0 -95 0 0 50 0 50 86
0 85 0 -3 28 c-3 27 -4 27 -85 30 l-83 3 0 44 0 45 95 0 95 0 0 30 0 30 -130
0 -130 0 0 -185z"/>
<path d="M6280 3620 c0 -30 1 -30 55 -30 l55 0 0 -155 0 -155 35 0 36 0 -3
155 -3 155 58 0 c57 0 57 0 57 30 l0 30 -145 0 -145 0 0 -30z"/>
<path d="M6692 3483 c-33 -92 -64 -176 -67 -185 -6 -15 -1 -18 28 -18 33 0 36
3 50 43 l14 42 74 0 74 0 15 -42 c13 -40 17 -43 51 -43 l36 0 -67 183 -68 182
-39 3 -40 3 -61 -168z m148 -55 c0 -5 -22 -8 -50 -8 -27 0 -50 4 -50 9 0 5 10
35 21 68 12 32 23 65 26 73 4 12 52 -119 53 -142z"/>
<path d="M7072 3506 c3 -128 5 -148 24 -173 45 -60 133 -78 204 -41 69 35 80
66 80 226 l0 132 -35 0 -35 0 0 -129 c0 -115 -2 -131 -21 -155 -28 -35 -95
-37 -127 -3 -20 21 -22 34 -22 155 l0 132 -36 0 -35 0 3 -144z"/>
<path d="M7530 3465 l0 -185 35 0 35 0 0 70 0 70 33 0 c31 0 36 -5 72 -70 37
-68 39 -70 77 -70 l39 0 -40 72 -40 73 26 20 c20 16 27 33 30 72 10 98 -35
133 -174 133 l-93 0 0 -185z m182 108 c25 -23 23 -68 -4 -87 -12 -9 -42 -16
-65 -16 l-43 0 0 60 0 60 47 0 c29 0 53 -6 65 -17z"/>
<path d="M8040 3640 c0 -5 -29 -88 -63 -185 l-64 -175 37 0 c36 0 38 2 50 45
l13 45 72 0 73 0 14 -42 c13 -39 18 -43 51 -46 l37 -3 -36 98 c-20 54 -50 137
-67 185 l-32 88 -42 0 c-24 0 -43 -4 -43 -10z m76 -152 l23 -68 -54 0 -53 0
26 81 c15 44 29 74 31 67 2 -7 14 -43 27 -80z"/>
<path d="M8380 3465 l0 -185 35 0 35 0 0 128 0 127 83 -127 c81 -125 83 -127
120 -128 l37 0 0 185 0 185 -30 0 -29 0 -3 -134 -3 -134 -85 134 c-84 133 -85
134 -122 134 l-38 0 0 -185z"/>
<path d="M8810 3620 c0 -30 1 -30 55 -30 l55 0 0 -155 0 -155 35 0 35 0 0 155
0 155 55 0 c54 0 55 0 55 30 l0 30 -145 0 -145 0 0 -30z"/>
</g>
</svg>
